<svg xmlns="http://www.w3.org/2000/svg" viewBox="0 0 480 120" width="480" height="120" role="img" aria-label="ARIA">
  <title>ARIA</title>
  <rect width="480" height="120" fill="#f3f0ee"/>
  <g fill="#141413">
    <!-- A (left) -->
    <path d="M40 95 L70 22 H92 L122 95 H102 L96 79 H66 L60 95 Z M71 64 H91 L81 38 Z"/>
    <!-- R -->
    <path d="M132 95 V22 H172 C188 22 198 32 198 46 C198 56 192 64 183 67 L201 95 H180 L165 71 H150 V95 Z M150 38 V56 H170 C176 56 180 52 180 47 C180 41 176 38 170 38 Z"/>
    <!-- I -->
    <path d="M212 95 V22 H230 V95 Z"/>
    <!-- A (right) -->
    <path d="M242 95 L272 22 H294 L324 95 H304 L298 79 H268 L262 95 Z M273 64 H293 L283 38 Z"/>
  </g>
  <!-- orbit-dot floating above the R -->
  <circle cx="141" cy="12" r="6" fill="#cf4500"/>
</svg>
